# xmcd
#
# Track frame offsets: 
#        150
#        19170
#        34914
#        55424
#        72213
#        80110
#        102487
#        117842
#        139622
#        158526
#        178519
#
# Disc length: 2632 seconds
#
# Revision: 0
# Processed by: cddbd v1.4PL0 Copyright (c) Steve Scherf et al.
# Submitted via: ExactAudioCopy v0.90a11
#
DISCID=910a460b
DTITLE=Johnny Staats Project - Wires and Wood (demo?)
DYEAR=1900
DGENRE=
TTITLE0=Mandolin Meltdown
TTITLE1=Coal Tatoo
TTITLE2=Legend of the Ghost Coon
TTITLE3=Wires and Wood
TTITLE4=Shafer's Reel
TTITLE5=Escape from Taiwan
TTITLE6=Can't Take It With You
TTITLE7=Catch Me If You Can
TTITLE8=Timbuktu
TTITLE9=Jessica's Lullaby
TTITLE10=John "Barty" Jam
EXTD=Was a demo in limited release - later tracks may have had wide rel
EXTD=ease
EXTT0=
EXTT1=
EXTT2=
EXTT3=
EXTT4=
EXTT5=
EXTT6=
EXTT7=
EXTT8=
EXTT9=
EXTT10=
PLAYORDER=
